<?xml version="1.0" encoding="UTF-8"?>
<svg width="102px" height="61px" viewBox="0 0 102 61" version="1.1" xmlns="http://www.w3.org/2000/svg" xmlns:xlink="http://www.w3.org/1999/xlink">
    <!-- Generator: Sketch 59.1 (86144) - https://sketch.com -->
    <title>Group 3</title>
    <desc>Created with Sketch.</desc>
    <g id="Page-1" stroke="none" stroke-width="1" fill="none" fill-rule="evenodd">
        <g id="styles" transform="translate(-231.000000, -641.000000)" fill="#F0EEEE">
            <g id="Group-3" transform="translate(231.000000, 641.000000)">
                <circle id="Oval" cx="3.5" cy="3.5" r="3.5"></circle>
                <circle id="Oval-Copy-5" cx="3.5" cy="21.5" r="3.5"></circle>
                <circle id="Oval-Copy-10" cx="3.5" cy="39.5" r="3.5"></circle>
                <circle id="Oval-Copy-15" cx="3.5" cy="57.5" r="3.5"></circle>
                <circle id="Oval-Copy" cx="27.5" cy="3.5" r="3.5"></circle>
                <circle id="Oval-Copy-6" cx="27.5" cy="21.5" r="3.5"></circle>
                <circle id="Oval-Copy-11" cx="27.5" cy="39.5" r="3.5"></circle>
                <circle id="Oval-Copy-16" cx="27.5" cy="57.5" r="3.5"></circle>
                <circle id="Oval-Copy-2" cx="50.5" cy="3.5" r="3.5"></circle>
                <circle id="Oval-Copy-7" cx="50.5" cy="21.5" r="3.5"></circle>
                <circle id="Oval-Copy-12" cx="50.5" cy="39.5" r="3.5"></circle>
                <circle id="Oval-Copy-17" cx="50.5" cy="57.5" r="3.5"></circle>
                <circle id="Oval-Copy-3" cx="74.5" cy="3.5" r="3.5"></circle>
                <circle id="Oval-Copy-8" cx="74.5" cy="21.5" r="3.5"></circle>
                <circle id="Oval-Copy-13" cx="74.5" cy="39.5" r="3.5"></circle>
                <circle id="Oval-Copy-18" cx="74.5" cy="57.5" r="3.5"></circle>
                <circle id="Oval-Copy-4" cx="98.5" cy="3.5" r="3.5"></circle>
                <circle id="Oval-Copy-9" cx="98.5" cy="21.5" r="3.5"></circle>
                <circle id="Oval-Copy-14" cx="98.5" cy="39.5" r="3.5"></circle>
                <circle id="Oval-Copy-19" cx="98.5" cy="57.5" r="3.5"></circle>
            </g>
        </g>
    </g>
</svg>